HIERARCHY
ROOT Hips
{
	OFFSET -0.001795 -0.223333 0.028219
	CHANNELS 6 Xposition Yposition Zposition Zrotation Yrotation Xrotation 
	JOINT LeftUpLeg
	{
		OFFSET 0.069520 -0.091406 -0.006815
		CHANNELS 3 Zrotation Yrotation Xrotation
		JOINT LeftLeg
		{
			OFFSET 0.034277 -0.375199 -0.004496
			CHANNELS 3 Zrotation Yrotation Xrotation
			JOINT LeftFoot
			{
				OFFSET -0.013596 -0.397961 -0.043693
				CHANNELS 3 Zrotation Yrotation Xrotation
				JOINT LeftToe
				{
					OFFSET 0.026358 -0.055791 0.119288
					CHANNELS 3 Zrotation Yrotation Xrotation
					End Site
					{
						OFFSET 0.000000 0.000000 0.000000
					}
				}
			}
		}
	}
	JOINT RightUpLeg
	{
		OFFSET -0.067670 -0.090522 -0.004320
		CHANNELS 3 Zrotation Yrotation Xrotation
		JOINT RightLeg
		{
			OFFSET -0.038290 -0.382569 -0.008850
			CHANNELS 3 Zrotation Yrotation Xrotation
			JOINT RightFoot
			{
				OFFSET 0.015774 -0.398415 -0.042312
				CHANNELS 3 Zrotation Yrotation Xrotation
				JOINT RightToe
				{
					OFFSET -0.025372 -0.048144 0.123348
					CHANNELS 3 Zrotation Yrotation Xrotation
					End Site
					{
						OFFSET 0.000000 0.000000 0.000000
					}
				}
			}
		}
	}
	JOINT Spine
	{
		OFFSET -0.002533 0.108963 -0.026696
		CHANNELS 3 Zrotation Yrotation Xrotation
		JOINT Spine1
		{
			OFFSET 0.005487 0.135180 0.001092
			CHANNELS 3 Zrotation Yrotation Xrotation
			JOINT Spine2
			{
				OFFSET 0.001457 0.052922 0.025425
				CHANNELS 3 Zrotation Yrotation Xrotation
				JOINT Neck
				{
					OFFSET -0.002778 0.213870 -0.042857
					CHANNELS 3 Zrotation Yrotation Xrotation
					JOINT Head
					{
						OFFSET 0.005152 0.064970 0.051349
						CHANNELS 3 Zrotation Yrotation Xrotation
						End Site
						{
							OFFSET 0.000000 0.000000 0.000000
						}
					}
				}
				JOINT LeftShoulder
				{
					OFFSET 0.078845 0.121749 -0.034090
					CHANNELS 3 Zrotation Yrotation Xrotation
					JOINT LeftArm
					{
						OFFSET 0.090977 0.030469 -0.008868
						CHANNELS 3 Zrotation Yrotation Xrotation
						JOINT LeftForeArm
						{
							OFFSET 0.259612 -0.012772 -0.027456
							CHANNELS 3 Zrotation Yrotation Xrotation
							JOINT LeftHand
							{
								OFFSET 0.249234 0.008986 -0.001171
								CHANNELS 3 Zrotation Yrotation Xrotation
								End Site
								{
									OFFSET 0.000000 0.000000 0.000000
								}
							}
						}
					}
				}
				JOINT RightShoulder
				{
					OFFSET -0.081759 0.118833 -0.038615
					CHANNELS 3 Zrotation Yrotation Xrotation
					JOINT RightArm
					{
						OFFSET -0.096012 0.032551 -0.009143
						CHANNELS 3 Zrotation Yrotation Xrotation
						JOINT RightForeArm
						{
							OFFSET -0.253742 -0.013329 -0.021401
							CHANNELS 3 Zrotation Yrotation Xrotation
							JOINT RightHand
							{
								OFFSET -0.255298 0.007772 -0.005559
								CHANNELS 3 Zrotation Yrotation Xrotation
								End Site
								{
									OFFSET 0.000000 0.000000 0.000000
								}
							}
						}
					}
				}
			}
		}
	}
}
MOTION
Frames: 10
Frame Time: 0.050000
0.000000 0.938996 0.000000 0.798896 0.217667 6.504072 5.999415 -0.337738 -4.225084 -0.481008 0.174818 -4.145171 2.081337 7.262593 9.091052 0.000000 0.000000 0.000000 -5.988241 0.505863 -5.664179 -2.352636 0.149589 -1.563245 -0.619752 -4.932845 8.325682 0.000000 0.000000 0.000000 5.499283 0.323028 -5.578673 -2.439445 1.153774 -3.554487 -4.728095 4.070946 6.374863 5.390168 -2.072850 -13.063110 0.000000 0.000000 0.000000 -17.076049 -4.491229 -0.445729 -55.157272 -6.375008 -3.635910 -5.139098 -15.916173 1.194244 0.000000 0.000000 0.000000 14.309027 -3.529981 -2.128017 64.644869 7.156125 -2.149796 4.064979 19.596783 1.464697 0.000000 0.000000 0.000000 
0.000207 0.938125 0.000054 0.912013 0.117869 7.170090 5.817416 -0.326370 -3.699591 -0.064899 0.202580 -5.839380 2.012663 7.303098 9.731576 0.000000 0.000000 0.000000 -5.973506 0.558972 -6.550123 -2.799413 0.227427 -0.954541 -0.269412 -4.348610 8.711997 0.000000 0.000000 0.000000 6.751315 0.410424 -6.371780 -3.230946 1.489021 -4.084543 -6.063422 4.564161 6.694669 5.275164 -1.761808 -14.208505 0.000000 0.000000 0.000000 -17.933843 -4.325970 -0.784160 -53.904905 -6.670847 -3.373707 -5.166318 -15.700899 1.168076 0.000000 0.000000 0.000000 14.532209 -4.813693 -2.682218 65.504362 7.039590 -2.171895 4.687471 18.429813 1.471071 0.000000 0.000000 0.000000 
0.000209 0.938212 -0.000066 1.322088 0.479495 7.032697 5.211134 -0.345188 -4.055195 0.215392 0.134740 -4.387180 1.812706 6.741900 8.799212 0.000000 0.000000 0.000000 -6.430331 0.544207 -6.593524 -2.701121 0.234005 -0.735776 -0.828947 -5.432240 8.619511 0.000000 0.000000 0.000000 6.336220 0.389312 -6.257747 -2.944983 1.368499 -4.823620 -6.586108 3.794171 7.218904 4.711828 -1.580403 -13.389406 0.000000 0.000000 0.000000 -17.649196 -4.533367 -0.495666 -54.068082 -6.632619 -3.497324 -4.381649 -15.133997 1.042836 0.000000 0.000000 0.000000 15.249490 -3.635451 -2.202270 64.408777 6.744924 -2.495396 5.371847 19.092647 1.622749 0.000000 0.000000 0.000000 
0.000110 0.938228 -0.000085 1.664115 0.846737 7.284938 5.255958 -0.362663 -4.288368 -0.170708 0.162457 -4.451049 1.553836 6.361179 8.922190 0.000000 0.000000 0.000000 -6.754128 0.564836 -7.299533 -3.002114 0.278668 -0.524446 -1.036112 -5.934443 9.003059 0.000000 0.000000 0.000000 6.492080 0.415032 -6.586911 -3.457940 1.591020 -4.217865 -6.709328 3.026073 6.363159 4.151314 -1.394738 -12.382075 0.000000 0.000000 0.000000 -18.008565 -4.194174 -0.619190 -54.023220 -7.166294 -3.167824 -3.463499 -15.180580 0.932772 0.000000 0.000000 0.000000 14.438336 -3.529227 -2.208069 64.575416 6.554941 -2.491696 6.330122 19.766617 1.815175 0.000000 0.000000 0.000000 
-0.000129 0.938953 -0.000188 1.904996 1.535246 7.192243 4.950341 -0.374627 -4.412433 0.061636 0.140457 -4.262687 1.150889 5.804162 9.161350 0.000000 0.000000 0.000000 -6.824895 0.548174 -7.290431 -3.357185 0.321642 -0.471478 -1.500952 -6.907612 9.368694 0.000000 0.000000 0.000000 6.072490 0.402504 -6.605321 -2.994968 1.401551 -4.205090 -7.231956 2.777104 6.414215 3.886228 -1.213112 -12.284491 0.000000 0.000000 0.000000 -17.747533 -4.422994 -0.529642 -53.964306 -7.701003 -2.925108 -4.034369 -15.194286 1.002461 0.000000 0.000000 0.000000 14.344780 -3.879871 -2.335595 64.420419 6.354824 -2.582953 7.228685 20.203403 2.019108 0.000000 0.000000 0.000000 
-0.000366 0.939401 -0.000215 2.028553 1.495840 7.428750 4.887585 -0.391547 -4.705392 0.068237 0.126737 -3.871412 1.282192 5.964552 8.957491 0.000000 0.000000 0.000000 -6.813380 0.565332 -7.614804 -3.704136 0.336473 -0.743187 -1.561899 -7.201333 9.993559 0.000000 0.000000 0.000000 6.065378 0.432514 -6.984112 -3.133532 1.459045 -4.294748 -7.278414 2.668163 6.591252 4.011305 -1.344058 -12.033817 0.000000 0.000000 0.000000 -18.278912 -4.326235 -0.605464 -53.349493 -7.973578 -2.765596 -3.895194 -15.451063 1.004787 0.000000 0.000000 0.000000 13.925111 -3.802545 -2.287584 64.678111 6.426554 -2.546730 7.522794 20.365706 2.081997 0.000000 0.000000 0.000000 
-0.000553 0.939714 -0.000241 2.122022 1.595778 7.462863 4.852336 -0.395163 -4.748317 -0.107362 0.141290 -3.943396 1.293748 6.150517 9.467908 0.000000 0.000000 0.000000 -6.762059 0.565482 -7.614910 -3.974009 0.348982 -0.938450 -1.532721 -7.176891 10.165510 0.000000 0.000000 0.000000 5.843244 0.429351 -7.033321 -3.097179 1.444607 -4.343374 -7.468636 2.507955 6.609980 4.178234 -1.415719 -12.352362 0.000000 0.000000 0.000000 -18.211432 -4.229373 -0.630782 -53.307966 -7.869120 -2.814378 -4.412802 -16.059053 1.115842 0.000000 0.000000 0.000000 14.049964 -3.808505 -2.310473 64.746023 6.327564 -2.612089 7.827081 20.928643 2.201473 0.000000 0.000000 0.000000 
-0.000631 0.939895 -0.000254 2.259338 1.571523 7.637894 4.659386 -0.414042 -5.058388 -0.037445 0.119445 -3.429348 1.363370 6.228231 9.333946 0.000000 0.000000 0.000000 -6.735777 0.577250 -7.815302 -4.102300 0.360671 -0.941055 -1.615800 -7.302592 10.006801 0.000000 0.000000 0.000000 5.788012 0.440341 -7.213655 -3.143904 1.463293 -4.384584 -7.640041 2.425805 6.676452 4.122299 -1.392882 -12.301718 0.000000 0.000000 0.000000 -18.383159 -4.197243 -0.648114 -52.900873 -7.982813 -2.742234 -4.787320 -16.527406 1.203085 0.000000 0.000000 0.000000 13.921731 -3.796875 -2.305080 65.017764 6.437296 -2.556840 7.990391 21.131950 2.253934 0.000000 0.000000 0.000000 
-0.000725 0.939857 -0.000274 2.429602 1.374781 7.557765 4.465122 -0.410760 -5.005447 -0.136745 0.124466 -3.355919 1.501469 6.466995 9.401133 0.000000 0.000000 0.000000 -6.844102 0.571985 -7.720947 -4.147227 0.344876 -1.192731 -1.570199 -7.231989 9.990466 0.000000 0.000000 0.000000 5.764496 0.430498 -7.071601 -3.205415 1.487183 -4.547388 -7.752854 2.612298 6.779917 4.107054 -1.363104 -12.388121 0.000000 0.000000 0.000000 -18.342466 -4.316605 -0.600930 -52.814813 -8.091963 -2.698070 -5.074757 -16.496879 1.239941 0.000000 0.000000 0.000000 14.045229 -3.720894 -2.256774 65.018437 6.637661 -2.458242 8.039751 21.333448 2.293911 0.000000 0.000000 0.000000 
-0.000828 0.939819 -0.000258 2.602015 1.240378 7.488659 4.306758 -0.414362 -5.075314 -0.208078 0.118407 -2.996575 1.607695 6.577996 9.197432 0.000000 0.000000 0.000000 -7.013951 0.567071 -7.699422 -4.149700 0.334623 -1.320651 -1.490634 -7.108398 10.060418 0.000000 0.000000 0.000000 5.859683 0.426292 -6.968830 -3.394162 1.565141 -4.604798 -7.825168 2.692100 6.841944 3.906865 -1.209252 -12.545180 0.000000 0.000000 0.000000 -18.484645 -4.570444 -0.485780 -52.519120 -8.239478 -2.617897 -5.353872 -16.459706 1.277223 0.000000 0.000000 0.000000 14.184744 -3.471924 -2.136837 64.966222 6.977162 -2.285381 8.051923 21.435640 2.310328 0.000000 0.000000 0.000000 
